<svg xmlns="http://www.w3.org/2000/svg" viewBox="0 0 64 64" width="64" height="64">
  <defs>
    <filter id="g" x="-30%" y="-30%" width="160%" height="160%"><feGaussianBlur stdDeviation="1.2"/></filter>
  </defs>
  <circle cx="32" cy="32" r="30" fill="#1c1c1f"/>
  <g stroke-width="3.2" stroke-linecap="round" fill="none">
    <g filter="url(#g)" opacity=".7">
      <path d="M32 6 A26 26 0 0 1 58 32" stroke="#ff3a5e"/>
      <path d="M58 32 A26 26 0 0 1 32 58" stroke="#ffb000"/>
      <path d="M32 58 A26 26 0 0 1 6 32" stroke="#33e661"/>
    </g>
    <path d="M32 6 A26 26 0 0 1 58 32" stroke="#ff3a5e" stroke-dasharray="3 3.1"/>
    <path d="M58 32 A26 26 0 0 1 32 58" stroke="#ffb000" stroke-dasharray="3 3.1"/>
    <path d="M32 58 A26 26 0 0 1 6 32" stroke="#33e661" stroke-dasharray="3 3.1"/>
    <path d="M6 32 A26 26 0 0 1 32 6" stroke="#2a3a2e" stroke-dasharray="3 3.1"/>
  </g>
  <circle cx="32" cy="32" r="7" fill="#ff3a3a"/>
  <circle cx="32" cy="32" r="9" fill="#ff3a3a" opacity=".35" filter="url(#g)"/>
</svg>
